<mxfile host="app.diagrams.net" modified="2024-01-18T05:40:08.053Z" agent="Mozilla/5.0 (Macintosh; Intel Mac OS X 10_15_7) AppleWebKit/537.36 (KHTML, like Gecko) Chrome/120.0.0.0 Safari/537.36" etag="0rVK34Bta3K1k6KqBkSE" version="22.1.17" type="github">
  <diagram name="Page-1" id="KfydnyV6p2WG9cMRB0td">
    <mxGraphModel dx="2261" dy="1955" grid="1" gridSize="10" guides="1" tooltips="1" connect="1" arrows="1" fold="1" page="1" pageScale="1" pageWidth="827" pageHeight="1169" math="0" shadow="0">
      <root>
        <mxCell id="0" />
        <mxCell id="1" parent="0" />
        <mxCell id="qFDEvMqMk0E2gpubQTda-2" value="" style="rounded=0;whiteSpace=wrap;html=1;fillColor=#FBFBFB;fontColor=#333333;strokeColor=#666666;" vertex="1" parent="1">
          <mxGeometry x="-450" y="-100" width="1230" height="770" as="geometry" />
        </mxCell>
        <mxCell id="qFDEvMqMk0E2gpubQTda-26" value="VivaLNK Mobile App" style="sketch=0;points=[[0,0,0],[0.25,0,0],[0.5,0,0],[0.75,0,0],[1,0,0],[0,1,0],[0.25,1,0],[0.5,1,0],[0.75,1,0],[1,1,0],[0,0.25,0],[0,0.5,0],[0,0.75,0],[1,0.25,0],[1,0.5,0],[1,0.75,0]];outlineConnect=0;fontColor=#232F3E;fillColor=#DD344C;strokeColor=#ffffff;dashed=0;verticalLabelPosition=bottom;verticalAlign=top;align=center;html=1;fontSize=12;fontStyle=0;aspect=fixed;shape=mxgraph.aws4.resourceIcon;resIcon=mxgraph.aws4.mobile;" vertex="1" parent="1">
          <mxGeometry x="-322" y="170" width="78" height="78" as="geometry" />
        </mxCell>
        <mxCell id="qFDEvMqMk0E2gpubQTda-30" value="WebPortal" style="points=[[0,0],[0.25,0],[0.5,0],[0.75,0],[1,0],[1,0.25],[1,0.5],[1,0.75],[1,1],[0.75,1],[0.5,1],[0.25,1],[0,1],[0,0.75],[0,0.5],[0,0.25]];outlineConnect=0;gradientColor=none;html=1;whiteSpace=wrap;fontSize=12;fontStyle=0;container=1;pointerEvents=0;collapsible=0;recursiveResize=0;shape=mxgraph.aws4.group;grIcon=mxgraph.aws4.group_aws_cloud_alt;strokeColor=#232F3E;fillColor=default;verticalAlign=top;align=left;spacingLeft=30;fontColor=#232F3E;dashed=0;" vertex="1" parent="1">
          <mxGeometry x="590" y="-80" width="170" height="730" as="geometry" />
        </mxCell>
        <mxCell id="qFDEvMqMk0E2gpubQTda-35" value="Backend" style="image;points=[];aspect=fixed;html=1;align=center;shadow=0;dashed=0;image=img/lib/allied_telesis/storage/Datacenter_Server_Half_Rack_ToR.svg;" vertex="1" parent="qFDEvMqMk0E2gpubQTda-30">
          <mxGeometry x="20" y="180" width="130" height="168.91" as="geometry" />
        </mxCell>
        <mxCell id="qFDEvMqMk0E2gpubQTda-36" value="WebPortal" style="points=[[0,0],[0.25,0],[0.5,0],[0.75,0],[1,0],[1,0.25],[1,0.5],[1,0.75],[1,1],[0.75,1],[0.5,1],[0.25,1],[0,1],[0,0.75],[0,0.5],[0,0.25]];outlineConnect=0;gradientColor=none;html=1;whiteSpace=wrap;fontSize=12;fontStyle=0;container=1;pointerEvents=0;collapsible=0;recursiveResize=0;shape=mxgraph.aws4.group;grIcon=mxgraph.aws4.group_aws_cloud_alt;strokeColor=#232F3E;fillColor=default;verticalAlign=top;align=left;spacingLeft=30;fontColor=#232F3E;dashed=0;" vertex="1" parent="1">
          <mxGeometry x="-202" y="490" width="792" height="160" as="geometry" />
        </mxCell>
        <mxCell id="qFDEvMqMk0E2gpubQTda-40" value="Website" style="shape=image;html=1;verticalAlign=top;verticalLabelPosition=bottom;labelBackgroundColor=#ffffff;imageAspect=0;aspect=fixed;image=https://cdn2.iconfinder.com/data/icons/bitsies/128/Application-128.png" vertex="1" parent="qFDEvMqMk0E2gpubQTda-36">
          <mxGeometry x="322" y="16" width="114" height="114" as="geometry" />
        </mxCell>
        <mxCell id="qFDEvMqMk0E2gpubQTda-51" style="edgeStyle=orthogonalEdgeStyle;rounded=0;orthogonalLoop=1;jettySize=auto;html=1;entryX=1;entryY=0.5;entryDx=0;entryDy=0;entryPerimeter=0;" edge="1" parent="1" target="qFDEvMqMk0E2gpubQTda-25">
          <mxGeometry relative="1" as="geometry">
            <mxPoint x="450" y="339" as="sourcePoint" />
          </mxGeometry>
        </mxCell>
        <mxCell id="qFDEvMqMk0E2gpubQTda-54" style="edgeStyle=orthogonalEdgeStyle;rounded=0;orthogonalLoop=1;jettySize=auto;html=1;entryX=0;entryY=0.5;entryDx=0;entryDy=0;entryPerimeter=0;" edge="1" parent="1" source="qFDEvMqMk0E2gpubQTda-26" target="qFDEvMqMk0E2gpubQTda-6">
          <mxGeometry relative="1" as="geometry">
            <Array as="points">
              <mxPoint x="-280" y="-1" />
            </Array>
          </mxGeometry>
        </mxCell>
        <mxCell id="qFDEvMqMk0E2gpubQTda-73" value="&lt;font color=&quot;#ff0000&quot; style=&quot;font-size: 13px;&quot;&gt;2&lt;/font&gt;" style="edgeLabel;html=1;align=center;verticalAlign=middle;resizable=0;points=[];" vertex="1" connectable="0" parent="qFDEvMqMk0E2gpubQTda-54">
          <mxGeometry x="-0.4437" y="1" relative="1" as="geometry">
            <mxPoint as="offset" />
          </mxGeometry>
        </mxCell>
        <mxCell id="qFDEvMqMk0E2gpubQTda-58" style="edgeStyle=orthogonalEdgeStyle;rounded=0;orthogonalLoop=1;jettySize=auto;html=1;entryX=0;entryY=0.5;entryDx=0;entryDy=0;" edge="1" parent="1" source="qFDEvMqMk0E2gpubQTda-57" target="qFDEvMqMk0E2gpubQTda-40">
          <mxGeometry relative="1" as="geometry">
            <Array as="points">
              <mxPoint x="-400" y="563" />
            </Array>
          </mxGeometry>
        </mxCell>
        <mxCell id="qFDEvMqMk0E2gpubQTda-72" value="&lt;font color=&quot;#ff00ff&quot; style=&quot;font-size: 13px;&quot;&gt;1: View Report&lt;/font&gt;" style="edgeLabel;html=1;align=center;verticalAlign=middle;resizable=0;points=[];" vertex="1" connectable="0" parent="qFDEvMqMk0E2gpubQTda-58">
          <mxGeometry x="-0.5737" y="2" relative="1" as="geometry">
            <mxPoint x="-2" y="24" as="offset" />
          </mxGeometry>
        </mxCell>
        <mxCell id="qFDEvMqMk0E2gpubQTda-69" style="edgeStyle=orthogonalEdgeStyle;rounded=0;orthogonalLoop=1;jettySize=auto;html=1;exitX=0.5;exitY=0;exitDx=0;exitDy=0;exitPerimeter=0;" edge="1" parent="1" source="qFDEvMqMk0E2gpubQTda-57" target="qFDEvMqMk0E2gpubQTda-26">
          <mxGeometry relative="1" as="geometry">
            <Array as="points">
              <mxPoint x="-400" y="100" />
              <mxPoint x="-340" y="100" />
              <mxPoint x="-340" y="209" />
            </Array>
          </mxGeometry>
        </mxCell>
        <mxCell id="qFDEvMqMk0E2gpubQTda-70" value="&lt;font style=&quot;font-size: 13px;&quot; color=&quot;#ff0000&quot;&gt;1: End &lt;br&gt;Recording&lt;/font&gt;" style="edgeLabel;html=1;align=center;verticalAlign=middle;resizable=0;points=[];" vertex="1" connectable="0" parent="qFDEvMqMk0E2gpubQTda-69">
          <mxGeometry x="-0.1984" y="-1" relative="1" as="geometry">
            <mxPoint x="-1" y="-3" as="offset" />
          </mxGeometry>
        </mxCell>
        <mxCell id="qFDEvMqMk0E2gpubQTda-57" value="" style="html=1;verticalLabelPosition=bottom;align=center;labelBackgroundColor=#ffffff;verticalAlign=top;strokeWidth=2;strokeColor=#0080F0;shadow=0;dashed=0;shape=mxgraph.ios7.icons.user;" vertex="1" parent="1">
          <mxGeometry x="-440" y="170" width="80" height="78" as="geometry" />
        </mxCell>
        <mxCell id="qFDEvMqMk0E2gpubQTda-65" style="edgeStyle=orthogonalEdgeStyle;rounded=0;orthogonalLoop=1;jettySize=auto;html=1;entryX=0.5;entryY=1;entryDx=0;entryDy=0;entryPerimeter=0;" edge="1" parent="1" source="qFDEvMqMk0E2gpubQTda-57" target="qFDEvMqMk0E2gpubQTda-26">
          <mxGeometry relative="1" as="geometry">
            <Array as="points">
              <mxPoint x="-400" y="320" />
              <mxPoint x="-283" y="320" />
            </Array>
          </mxGeometry>
        </mxCell>
        <mxCell id="qFDEvMqMk0E2gpubQTda-71" value="&lt;font color=&quot;#0000ff&quot; style=&quot;font-size: 13px;&quot;&gt;1: List Reports&lt;/font&gt;" style="edgeLabel;html=1;align=center;verticalAlign=middle;resizable=0;points=[];" vertex="1" connectable="0" parent="qFDEvMqMk0E2gpubQTda-65">
          <mxGeometry x="-0.0268" y="-3" relative="1" as="geometry">
            <mxPoint y="-4" as="offset" />
          </mxGeometry>
        </mxCell>
        <mxCell id="qFDEvMqMk0E2gpubQTda-85" value="" style="group" vertex="1" connectable="0" parent="1">
          <mxGeometry x="-200" y="-80" width="780" height="560" as="geometry" />
        </mxCell>
        <mxCell id="qFDEvMqMk0E2gpubQTda-28" value="vCloud" style="points=[[0,0],[0.25,0],[0.5,0],[0.75,0],[1,0],[1,0.25],[1,0.5],[1,0.75],[1,1],[0.75,1],[0.5,1],[0.25,1],[0,1],[0,0.75],[0,0.5],[0,0.25]];outlineConnect=0;gradientColor=none;html=1;whiteSpace=wrap;fontSize=12;fontStyle=0;container=1;pointerEvents=0;collapsible=0;recursiveResize=0;shape=mxgraph.aws4.group;grIcon=mxgraph.aws4.group_aws_cloud_alt;strokeColor=#232F3E;fillColor=default;verticalAlign=top;align=left;spacingLeft=30;fontColor=#232F3E;dashed=0;" vertex="1" parent="qFDEvMqMk0E2gpubQTda-85">
          <mxGeometry width="780" height="560" as="geometry" />
        </mxCell>
        <mxCell id="qFDEvMqMk0E2gpubQTda-29" value="" style="group" vertex="1" connectable="0" parent="qFDEvMqMk0E2gpubQTda-85">
          <mxGeometry x="31" y="30" width="718" height="500" as="geometry" />
        </mxCell>
        <mxCell id="qFDEvMqMk0E2gpubQTda-8" value="RDS: Task Table" style="sketch=0;points=[[0,0,0],[0.25,0,0],[0.5,0,0],[0.75,0,0],[1,0,0],[0,1,0],[0.25,1,0],[0.5,1,0],[0.75,1,0],[1,1,0],[0,0.25,0],[0,0.5,0],[0,0.75,0],[1,0.25,0],[1,0.5,0],[1,0.75,0]];outlineConnect=0;fontColor=#232F3E;fillColor=#C925D1;strokeColor=#ffffff;dashed=0;verticalLabelPosition=bottom;verticalAlign=top;align=center;html=1;fontSize=12;fontStyle=0;aspect=fixed;shape=mxgraph.aws4.resourceIcon;resIcon=mxgraph.aws4.rds;" vertex="1" parent="qFDEvMqMk0E2gpubQTda-29">
          <mxGeometry x="320" y="220" width="78" height="78" as="geometry" />
        </mxCell>
        <mxCell id="qFDEvMqMk0E2gpubQTda-10" value="SQS: Task Queue" style="sketch=0;points=[[0,0,0],[0.25,0,0],[0.5,0,0],[0.75,0,0],[1,0,0],[0,1,0],[0.25,1,0],[0.5,1,0],[0.75,1,0],[1,1,0],[0,0.25,0],[0,0.5,0],[0,0.75,0],[1,0.25,0],[1,0.5,0],[1,0.75,0]];outlineConnect=0;fontColor=#232F3E;fillColor=#E7157B;strokeColor=#ffffff;dashed=0;verticalLabelPosition=bottom;verticalAlign=top;align=center;html=1;fontSize=12;fontStyle=0;aspect=fixed;shape=mxgraph.aws4.resourceIcon;resIcon=mxgraph.aws4.sqs;" vertex="1" parent="qFDEvMqMk0E2gpubQTda-29">
          <mxGeometry x="320" y="10" width="78" height="78" as="geometry" />
        </mxCell>
        <mxCell id="qFDEvMqMk0E2gpubQTda-11" value="SNS" style="sketch=0;points=[[0,0,0],[0.25,0,0],[0.5,0,0],[0.75,0,0],[1,0,0],[0,1,0],[0.25,1,0],[0.5,1,0],[0.75,1,0],[1,1,0],[0,0.25,0],[0,0.5,0],[0,0.75,0],[1,0.25,0],[1,0.5,0],[1,0.75,0]];outlineConnect=0;fontColor=#232F3E;fillColor=#E7157B;strokeColor=#ffffff;dashed=0;verticalLabelPosition=bottom;verticalAlign=top;align=center;html=1;fontSize=12;fontStyle=0;aspect=fixed;shape=mxgraph.aws4.resourceIcon;resIcon=mxgraph.aws4.sns;" vertex="1" parent="qFDEvMqMk0E2gpubQTda-29">
          <mxGeometry x="549" y="220" width="78" height="78" as="geometry" />
        </mxCell>
        <mxCell id="qFDEvMqMk0E2gpubQTda-13" value="" style="group" vertex="1" connectable="0" parent="qFDEvMqMk0E2gpubQTda-29">
          <mxGeometry width="260" height="160" as="geometry" />
        </mxCell>
        <object placeholders="1" c4Name="Task Create" c4Type="ContainerScopeBoundary" c4Application="API" label="&lt;font style=&quot;font-size: 16px&quot;&gt;&lt;b&gt;&lt;div style=&quot;text-align: left&quot;&gt;%c4Name%&lt;/div&gt;&lt;/b&gt;&lt;/font&gt;&lt;div style=&quot;text-align: left&quot;&gt;[%c4Application%]&lt;/div&gt;" id="qFDEvMqMk0E2gpubQTda-5">
          <mxCell style="rounded=1;fontSize=11;whiteSpace=wrap;html=1;dashed=1;arcSize=20;fillColor=none;strokeColor=#666666;fontColor=#333333;labelBackgroundColor=none;align=left;verticalAlign=bottom;labelBorderColor=none;spacingTop=0;spacing=10;dashPattern=8 4;metaEdit=1;rotatable=0;perimeter=rectanglePerimeter;noLabel=0;labelPadding=0;allowArrows=0;connectable=0;expand=0;recursiveResize=0;editable=1;pointerEvents=0;absoluteArcSize=1;points=[[0.25,0,0],[0.5,0,0],[0.75,0,0],[1,0.25,0],[1,0.5,0],[1,0.75,0],[0.75,1,0],[0.5,1,0],[0.25,1,0],[0,0.75,0],[0,0.5,0],[0,0.25,0]];" vertex="1" parent="qFDEvMqMk0E2gpubQTda-13">
            <mxGeometry width="260" height="160" as="geometry" />
          </mxCell>
        </object>
        <mxCell id="qFDEvMqMk0E2gpubQTda-43" style="edgeStyle=orthogonalEdgeStyle;rounded=0;orthogonalLoop=1;jettySize=auto;html=1;" edge="1" parent="qFDEvMqMk0E2gpubQTda-13" source="qFDEvMqMk0E2gpubQTda-6" target="qFDEvMqMk0E2gpubQTda-7">
          <mxGeometry relative="1" as="geometry" />
        </mxCell>
        <mxCell id="qFDEvMqMk0E2gpubQTda-74" value="&lt;font color=&quot;#ff0000&quot; style=&quot;font-size: 13px;&quot;&gt;3&lt;/font&gt;" style="edgeLabel;html=1;align=center;verticalAlign=middle;resizable=0;points=[];" vertex="1" connectable="0" parent="qFDEvMqMk0E2gpubQTda-43">
          <mxGeometry x="-0.2581" y="2" relative="1" as="geometry">
            <mxPoint y="1" as="offset" />
          </mxGeometry>
        </mxCell>
        <mxCell id="qFDEvMqMk0E2gpubQTda-6" value="Gateway" style="sketch=0;points=[[0,0,0],[0.25,0,0],[0.5,0,0],[0.75,0,0],[1,0,0],[0,1,0],[0.25,1,0],[0.5,1,0],[0.75,1,0],[1,1,0],[0,0.25,0],[0,0.5,0],[0,0.75,0],[1,0.25,0],[1,0.5,0],[1,0.75,0]];outlineConnect=0;fontColor=#232F3E;fillColor=#8C4FFF;strokeColor=#ffffff;dashed=0;verticalLabelPosition=bottom;verticalAlign=top;align=center;html=1;fontSize=12;fontStyle=0;aspect=fixed;shape=mxgraph.aws4.resourceIcon;resIcon=mxgraph.aws4.api_gateway;" vertex="1" parent="qFDEvMqMk0E2gpubQTda-13">
          <mxGeometry x="20" y="10" width="78" height="78" as="geometry" />
        </mxCell>
        <mxCell id="qFDEvMqMk0E2gpubQTda-7" value="" style="sketch=0;points=[[0,0,0],[0.25,0,0],[0.5,0,0],[0.75,0,0],[1,0,0],[0,1,0],[0.25,1,0],[0.5,1,0],[0.75,1,0],[1,1,0],[0,0.25,0],[0,0.5,0],[0,0.75,0],[1,0.25,0],[1,0.5,0],[1,0.75,0]];outlineConnect=0;fontColor=#232F3E;fillColor=#ED7100;strokeColor=#ffffff;dashed=0;verticalLabelPosition=bottom;verticalAlign=top;align=center;html=1;fontSize=12;fontStyle=0;aspect=fixed;shape=mxgraph.aws4.resourceIcon;resIcon=mxgraph.aws4.lambda;" vertex="1" parent="qFDEvMqMk0E2gpubQTda-13">
          <mxGeometry x="160" y="10" width="78" height="78" as="geometry" />
        </mxCell>
        <mxCell id="qFDEvMqMk0E2gpubQTda-14" value="" style="group" vertex="1" connectable="0" parent="qFDEvMqMk0E2gpubQTda-29">
          <mxGeometry x="458" width="260" height="160" as="geometry" />
        </mxCell>
        <object placeholders="1" c4Name="Task Consumer" c4Type="ContainerScopeBoundary" c4Application="Listener" label="&lt;font style=&quot;font-size: 16px&quot;&gt;&lt;b&gt;&lt;div style=&quot;text-align: left&quot;&gt;%c4Name%&lt;/div&gt;&lt;/b&gt;&lt;/font&gt;&lt;div style=&quot;text-align: left&quot;&gt;[%c4Application%]&lt;/div&gt;" id="qFDEvMqMk0E2gpubQTda-15">
          <mxCell style="rounded=1;fontSize=11;whiteSpace=wrap;html=1;dashed=1;arcSize=20;fillColor=none;strokeColor=#666666;fontColor=#333333;labelBackgroundColor=none;align=left;verticalAlign=bottom;labelBorderColor=none;spacingTop=0;spacing=10;dashPattern=8 4;metaEdit=1;rotatable=0;perimeter=rectanglePerimeter;noLabel=0;labelPadding=0;allowArrows=0;connectable=0;expand=0;recursiveResize=0;editable=1;pointerEvents=0;absoluteArcSize=1;points=[[0.25,0,0],[0.5,0,0],[0.75,0,0],[1,0.25,0],[1,0.5,0],[1,0.75,0],[0.75,1,0],[0.5,1,0],[0.25,1,0],[0,0.75,0],[0,0.5,0],[0,0.25,0]];" vertex="1" parent="qFDEvMqMk0E2gpubQTda-14">
            <mxGeometry width="260" height="160" as="geometry" />
          </mxCell>
        </object>
        <mxCell id="qFDEvMqMk0E2gpubQTda-17" value="" style="sketch=0;points=[[0,0,0],[0.25,0,0],[0.5,0,0],[0.75,0,0],[1,0,0],[0,1,0],[0.25,1,0],[0.5,1,0],[0.75,1,0],[1,1,0],[0,0.25,0],[0,0.5,0],[0,0.75,0],[1,0.25,0],[1,0.5,0],[1,0.75,0]];outlineConnect=0;fontColor=#232F3E;fillColor=#ED7100;strokeColor=#ffffff;dashed=0;verticalLabelPosition=bottom;verticalAlign=top;align=center;html=1;fontSize=12;fontStyle=0;aspect=fixed;shape=mxgraph.aws4.resourceIcon;resIcon=mxgraph.aws4.lambda;" vertex="1" parent="qFDEvMqMk0E2gpubQTda-14">
          <mxGeometry x="91" y="10" width="78" height="78" as="geometry" />
        </mxCell>
        <mxCell id="qFDEvMqMk0E2gpubQTda-18" value="" style="group" vertex="1" connectable="0" parent="qFDEvMqMk0E2gpubQTda-29">
          <mxGeometry y="340" width="260" height="160" as="geometry" />
        </mxCell>
        <object placeholders="1" c4Name="Task Query" c4Type="ContainerScopeBoundary" c4Application="API" label="&lt;font style=&quot;font-size: 16px&quot;&gt;&lt;b&gt;&lt;div style=&quot;text-align: left&quot;&gt;%c4Name%&lt;/div&gt;&lt;/b&gt;&lt;/font&gt;&lt;div style=&quot;text-align: left&quot;&gt;[%c4Application%]&lt;/div&gt;" id="qFDEvMqMk0E2gpubQTda-19">
          <mxCell style="rounded=1;fontSize=11;whiteSpace=wrap;html=1;dashed=1;arcSize=20;fillColor=none;strokeColor=#666666;fontColor=#333333;labelBackgroundColor=none;align=left;verticalAlign=bottom;labelBorderColor=none;spacingTop=0;spacing=10;dashPattern=8 4;metaEdit=1;rotatable=0;perimeter=rectanglePerimeter;noLabel=0;labelPadding=0;allowArrows=0;connectable=0;expand=0;recursiveResize=0;editable=1;pointerEvents=0;absoluteArcSize=1;points=[[0.25,0,0],[0.5,0,0],[0.75,0,0],[1,0.25,0],[1,0.5,0],[1,0.75,0],[0.75,1,0],[0.5,1,0],[0.25,1,0],[0,0.75,0],[0,0.5,0],[0,0.25,0]];" vertex="1" parent="qFDEvMqMk0E2gpubQTda-18">
            <mxGeometry width="260" height="160" as="geometry" />
          </mxCell>
        </object>
        <mxCell id="qFDEvMqMk0E2gpubQTda-46" style="edgeStyle=orthogonalEdgeStyle;rounded=0;orthogonalLoop=1;jettySize=auto;html=1;" edge="1" parent="qFDEvMqMk0E2gpubQTda-18" source="qFDEvMqMk0E2gpubQTda-20" target="qFDEvMqMk0E2gpubQTda-21">
          <mxGeometry relative="1" as="geometry" />
        </mxCell>
        <mxCell id="qFDEvMqMk0E2gpubQTda-88" value="&lt;font color=&quot;#0000ff&quot; style=&quot;font-size: 13px;&quot;&gt;3&lt;/font&gt;" style="edgeLabel;html=1;align=center;verticalAlign=middle;resizable=0;points=[];" vertex="1" connectable="0" parent="qFDEvMqMk0E2gpubQTda-46">
          <mxGeometry x="0.0323" y="-1" relative="1" as="geometry">
            <mxPoint y="-2" as="offset" />
          </mxGeometry>
        </mxCell>
        <mxCell id="qFDEvMqMk0E2gpubQTda-20" value="Gateway" style="sketch=0;points=[[0,0,0],[0.25,0,0],[0.5,0,0],[0.75,0,0],[1,0,0],[0,1,0],[0.25,1,0],[0.5,1,0],[0.75,1,0],[1,1,0],[0,0.25,0],[0,0.5,0],[0,0.75,0],[1,0.25,0],[1,0.5,0],[1,0.75,0]];outlineConnect=0;fontColor=#232F3E;fillColor=#8C4FFF;strokeColor=#ffffff;dashed=0;verticalLabelPosition=bottom;verticalAlign=top;align=center;html=1;fontSize=12;fontStyle=0;aspect=fixed;shape=mxgraph.aws4.resourceIcon;resIcon=mxgraph.aws4.api_gateway;" vertex="1" parent="qFDEvMqMk0E2gpubQTda-18">
          <mxGeometry x="20" y="10" width="78" height="78" as="geometry" />
        </mxCell>
        <mxCell id="qFDEvMqMk0E2gpubQTda-21" value="" style="sketch=0;points=[[0,0,0],[0.25,0,0],[0.5,0,0],[0.75,0,0],[1,0,0],[0,1,0],[0.25,1,0],[0.5,1,0],[0.75,1,0],[1,1,0],[0,0.25,0],[0,0.5,0],[0,0.75,0],[1,0.25,0],[1,0.5,0],[1,0.75,0]];outlineConnect=0;fontColor=#232F3E;fillColor=#ED7100;strokeColor=#ffffff;dashed=0;verticalLabelPosition=bottom;verticalAlign=top;align=center;html=1;fontSize=12;fontStyle=0;aspect=fixed;shape=mxgraph.aws4.resourceIcon;resIcon=mxgraph.aws4.lambda;" vertex="1" parent="qFDEvMqMk0E2gpubQTda-18">
          <mxGeometry x="160" y="10" width="78" height="78" as="geometry" />
        </mxCell>
        <mxCell id="qFDEvMqMk0E2gpubQTda-22" value="" style="group" vertex="1" connectable="0" parent="qFDEvMqMk0E2gpubQTda-29">
          <mxGeometry x="458" y="340" width="260" height="160" as="geometry" />
        </mxCell>
        <object placeholders="1" c4Name="Task Update" c4Type="ContainerScopeBoundary" c4Application="API" label="&lt;font style=&quot;font-size: 16px&quot;&gt;&lt;b&gt;&lt;div style=&quot;text-align: left&quot;&gt;%c4Name%&lt;/div&gt;&lt;/b&gt;&lt;/font&gt;&lt;div style=&quot;text-align: left&quot;&gt;[%c4Application%]&lt;/div&gt;" id="qFDEvMqMk0E2gpubQTda-23">
          <mxCell style="rounded=1;fontSize=11;whiteSpace=wrap;html=1;dashed=1;arcSize=20;fillColor=none;strokeColor=#666666;fontColor=#333333;labelBackgroundColor=none;align=left;verticalAlign=bottom;labelBorderColor=none;spacingTop=0;spacing=10;dashPattern=8 4;metaEdit=1;rotatable=0;perimeter=rectanglePerimeter;noLabel=0;labelPadding=0;allowArrows=0;connectable=0;expand=0;recursiveResize=0;editable=1;pointerEvents=0;absoluteArcSize=1;points=[[0.25,0,0],[0.5,0,0],[0.75,0,0],[1,0.25,0],[1,0.5,0],[1,0.75,0],[0.75,1,0],[0.5,1,0],[0.25,1,0],[0,0.75,0],[0,0.5,0],[0,0.25,0]];" vertex="1" parent="qFDEvMqMk0E2gpubQTda-22">
            <mxGeometry width="260" height="160" as="geometry" />
          </mxCell>
        </object>
        <mxCell id="qFDEvMqMk0E2gpubQTda-25" value="" style="sketch=0;points=[[0,0,0],[0.25,0,0],[0.5,0,0],[0.75,0,0],[1,0,0],[0,1,0],[0.25,1,0],[0.5,1,0],[0.75,1,0],[1,1,0],[0,0.25,0],[0,0.5,0],[0,0.75,0],[1,0.25,0],[1,0.5,0],[1,0.75,0]];outlineConnect=0;fontColor=#232F3E;fillColor=#ED7100;strokeColor=#ffffff;dashed=0;verticalLabelPosition=bottom;verticalAlign=top;align=center;html=1;fontSize=12;fontStyle=0;aspect=fixed;shape=mxgraph.aws4.resourceIcon;resIcon=mxgraph.aws4.lambda;" vertex="1" parent="qFDEvMqMk0E2gpubQTda-22">
          <mxGeometry x="22" y="10" width="78" height="78" as="geometry" />
        </mxCell>
        <mxCell id="qFDEvMqMk0E2gpubQTda-90" value="Gateway" style="sketch=0;points=[[0,0,0],[0.25,0,0],[0.5,0,0],[0.75,0,0],[1,0,0],[0,1,0],[0.25,1,0],[0.5,1,0],[0.75,1,0],[1,1,0],[0,0.25,0],[0,0.5,0],[0,0.75,0],[1,0.25,0],[1,0.5,0],[1,0.75,0]];outlineConnect=0;fontColor=#232F3E;fillColor=#8C4FFF;strokeColor=#ffffff;dashed=0;verticalLabelPosition=bottom;verticalAlign=top;align=center;html=1;fontSize=12;fontStyle=0;aspect=fixed;shape=mxgraph.aws4.resourceIcon;resIcon=mxgraph.aws4.api_gateway;" vertex="1" parent="qFDEvMqMk0E2gpubQTda-22">
          <mxGeometry x="161" y="10" width="78" height="78" as="geometry" />
        </mxCell>
        <mxCell id="qFDEvMqMk0E2gpubQTda-91" style="edgeStyle=orthogonalEdgeStyle;rounded=0;orthogonalLoop=1;jettySize=auto;html=1;entryX=1;entryY=0.5;entryDx=0;entryDy=0;entryPerimeter=0;" edge="1" parent="qFDEvMqMk0E2gpubQTda-22" source="qFDEvMqMk0E2gpubQTda-90" target="qFDEvMqMk0E2gpubQTda-25">
          <mxGeometry relative="1" as="geometry" />
        </mxCell>
        <mxCell id="qFDEvMqMk0E2gpubQTda-100" value="&lt;font color=&quot;#009900&quot; style=&quot;font-size: 13px;&quot;&gt;2&lt;/font&gt;" style="edgeLabel;html=1;align=center;verticalAlign=middle;resizable=0;points=[];" vertex="1" connectable="0" parent="qFDEvMqMk0E2gpubQTda-91">
          <mxGeometry x="0.2787" y="2" relative="1" as="geometry">
            <mxPoint x="5" y="-3" as="offset" />
          </mxGeometry>
        </mxCell>
        <mxCell id="qFDEvMqMk0E2gpubQTda-44" style="edgeStyle=orthogonalEdgeStyle;rounded=0;orthogonalLoop=1;jettySize=auto;html=1;entryX=0;entryY=0.5;entryDx=0;entryDy=0;entryPerimeter=0;exitX=0.5;exitY=1;exitDx=0;exitDy=0;exitPerimeter=0;" edge="1" parent="qFDEvMqMk0E2gpubQTda-29" source="qFDEvMqMk0E2gpubQTda-7" target="qFDEvMqMk0E2gpubQTda-8">
          <mxGeometry relative="1" as="geometry" />
        </mxCell>
        <mxCell id="qFDEvMqMk0E2gpubQTda-75" value="&lt;font style=&quot;font-size: 13px;&quot; color=&quot;#ff0000&quot;&gt;4: Insert Task&lt;/font&gt;" style="edgeLabel;html=1;align=center;verticalAlign=middle;resizable=0;points=[];" vertex="1" connectable="0" parent="qFDEvMqMk0E2gpubQTda-44">
          <mxGeometry x="-0.1918" y="2" relative="1" as="geometry">
            <mxPoint as="offset" />
          </mxGeometry>
        </mxCell>
        <mxCell id="qFDEvMqMk0E2gpubQTda-47" style="edgeStyle=orthogonalEdgeStyle;rounded=0;orthogonalLoop=1;jettySize=auto;html=1;entryX=0.5;entryY=1;entryDx=0;entryDy=0;entryPerimeter=0;" edge="1" parent="qFDEvMqMk0E2gpubQTda-29" source="qFDEvMqMk0E2gpubQTda-21" target="qFDEvMqMk0E2gpubQTda-8">
          <mxGeometry relative="1" as="geometry" />
        </mxCell>
        <mxCell id="qFDEvMqMk0E2gpubQTda-89" value="&lt;font color=&quot;#0000ff&quot; style=&quot;font-size: 13px;&quot;&gt;4: Read Tasks&lt;/font&gt;" style="edgeLabel;html=1;align=center;verticalAlign=middle;resizable=0;points=[];" vertex="1" connectable="0" parent="qFDEvMqMk0E2gpubQTda-47">
          <mxGeometry x="-0.3585" y="-2" relative="1" as="geometry">
            <mxPoint x="1" y="-4" as="offset" />
          </mxGeometry>
        </mxCell>
        <mxCell id="qFDEvMqMk0E2gpubQTda-48" style="edgeStyle=orthogonalEdgeStyle;rounded=0;orthogonalLoop=1;jettySize=auto;html=1;entryX=0;entryY=0.5;entryDx=0;entryDy=0;entryPerimeter=0;" edge="1" parent="qFDEvMqMk0E2gpubQTda-29" source="qFDEvMqMk0E2gpubQTda-10" target="qFDEvMqMk0E2gpubQTda-17">
          <mxGeometry relative="1" as="geometry" />
        </mxCell>
        <mxCell id="qFDEvMqMk0E2gpubQTda-82" value="&lt;font color=&quot;#ff8000&quot; style=&quot;font-size: 13px;&quot;&gt;1: Get Task&lt;/font&gt;" style="edgeLabel;html=1;align=center;verticalAlign=middle;resizable=0;points=[];" vertex="1" connectable="0" parent="qFDEvMqMk0E2gpubQTda-48">
          <mxGeometry x="-0.2318" y="1" relative="1" as="geometry">
            <mxPoint x="13" y="-1" as="offset" />
          </mxGeometry>
        </mxCell>
        <mxCell id="qFDEvMqMk0E2gpubQTda-53" style="edgeStyle=orthogonalEdgeStyle;rounded=0;orthogonalLoop=1;jettySize=auto;html=1;exitX=0.5;exitY=0;exitDx=0;exitDy=0;exitPerimeter=0;entryX=1;entryY=0.5;entryDx=0;entryDy=0;entryPerimeter=0;" edge="1" parent="qFDEvMqMk0E2gpubQTda-29" source="qFDEvMqMk0E2gpubQTda-25" target="qFDEvMqMk0E2gpubQTda-8">
          <mxGeometry relative="1" as="geometry" />
        </mxCell>
        <mxCell id="qFDEvMqMk0E2gpubQTda-101" value="&lt;font color=&quot;#009900&quot; style=&quot;font-size: 13px;&quot;&gt;3： Update Task&lt;/font&gt;" style="edgeLabel;html=1;align=center;verticalAlign=middle;resizable=0;points=[];" vertex="1" connectable="0" parent="qFDEvMqMk0E2gpubQTda-53">
          <mxGeometry x="0.217" relative="1" as="geometry">
            <mxPoint x="-18" y="-1" as="offset" />
          </mxGeometry>
        </mxCell>
        <mxCell id="qFDEvMqMk0E2gpubQTda-78" style="edgeStyle=orthogonalEdgeStyle;rounded=0;orthogonalLoop=1;jettySize=auto;html=1;exitX=1;exitY=0.5;exitDx=0;exitDy=0;exitPerimeter=0;" edge="1" parent="qFDEvMqMk0E2gpubQTda-29" source="qFDEvMqMk0E2gpubQTda-7" target="qFDEvMqMk0E2gpubQTda-10">
          <mxGeometry relative="1" as="geometry" />
        </mxCell>
        <mxCell id="qFDEvMqMk0E2gpubQTda-81" value="&lt;font color=&quot;#ff0000&quot; style=&quot;font-size: 13px;&quot;&gt;5: Put Task&lt;br&gt;with a Delay&lt;br&gt;of 30 min&lt;br&gt;&lt;/font&gt;" style="edgeLabel;html=1;align=center;verticalAlign=middle;resizable=0;points=[];" vertex="1" connectable="0" parent="qFDEvMqMk0E2gpubQTda-78">
          <mxGeometry x="-0.0732" y="1" relative="1" as="geometry">
            <mxPoint x="-2" as="offset" />
          </mxGeometry>
        </mxCell>
        <mxCell id="qFDEvMqMk0E2gpubQTda-97" style="edgeStyle=orthogonalEdgeStyle;rounded=0;orthogonalLoop=1;jettySize=auto;html=1;" edge="1" parent="qFDEvMqMk0E2gpubQTda-29" source="qFDEvMqMk0E2gpubQTda-17" target="qFDEvMqMk0E2gpubQTda-11">
          <mxGeometry relative="1" as="geometry" />
        </mxCell>
        <mxCell id="qFDEvMqMk0E2gpubQTda-98" value="&lt;font color=&quot;#ff8000&quot; style=&quot;font-size: 13px;&quot;&gt;2: Put Task&lt;/font&gt;" style="edgeLabel;html=1;align=center;verticalAlign=middle;resizable=0;points=[];" vertex="1" connectable="0" parent="qFDEvMqMk0E2gpubQTda-97">
          <mxGeometry x="-0.0455" y="3" relative="1" as="geometry">
            <mxPoint x="-4" as="offset" />
          </mxGeometry>
        </mxCell>
        <mxCell id="qFDEvMqMk0E2gpubQTda-86" style="edgeStyle=orthogonalEdgeStyle;rounded=0;orthogonalLoop=1;jettySize=auto;html=1;entryX=0.5;entryY=0;entryDx=0;entryDy=0;entryPerimeter=0;" edge="1" parent="1" source="qFDEvMqMk0E2gpubQTda-26" target="qFDEvMqMk0E2gpubQTda-20">
          <mxGeometry relative="1" as="geometry" />
        </mxCell>
        <mxCell id="qFDEvMqMk0E2gpubQTda-87" value="&lt;font color=&quot;#0000ff&quot; style=&quot;font-size: 13px;&quot;&gt;2&lt;/font&gt;" style="edgeLabel;html=1;align=center;verticalAlign=middle;resizable=0;points=[];" vertex="1" connectable="0" parent="qFDEvMqMk0E2gpubQTda-86">
          <mxGeometry x="-0.2622" y="2" relative="1" as="geometry">
            <mxPoint as="offset" />
          </mxGeometry>
        </mxCell>
        <mxCell id="qFDEvMqMk0E2gpubQTda-92" style="edgeStyle=orthogonalEdgeStyle;rounded=0;orthogonalLoop=1;jettySize=auto;html=1;exitX=1;exitY=0.5;exitDx=0;exitDy=0;exitPerimeter=0;" edge="1" parent="1" source="qFDEvMqMk0E2gpubQTda-11" target="qFDEvMqMk0E2gpubQTda-35">
          <mxGeometry relative="1" as="geometry">
            <Array as="points">
              <mxPoint x="510" y="209" />
              <mxPoint x="510" y="210" />
            </Array>
          </mxGeometry>
        </mxCell>
        <mxCell id="qFDEvMqMk0E2gpubQTda-93" value="&lt;font color=&quot;#ff8000&quot; style=&quot;font-size: 13px;&quot;&gt;3: Publish Task&lt;/font&gt;" style="edgeLabel;html=1;align=center;verticalAlign=middle;resizable=0;points=[];" vertex="1" connectable="0" parent="qFDEvMqMk0E2gpubQTda-92">
          <mxGeometry x="-0.1927" y="-1" relative="1" as="geometry">
            <mxPoint y="-2" as="offset" />
          </mxGeometry>
        </mxCell>
        <mxCell id="qFDEvMqMk0E2gpubQTda-95" style="edgeStyle=orthogonalEdgeStyle;rounded=0;orthogonalLoop=1;jettySize=auto;html=1;entryX=1;entryY=0.5;entryDx=0;entryDy=0;entryPerimeter=0;" edge="1" parent="1" source="qFDEvMqMk0E2gpubQTda-35" target="qFDEvMqMk0E2gpubQTda-90">
          <mxGeometry relative="1" as="geometry">
            <mxPoint x="680" y="360" as="sourcePoint" />
            <Array as="points">
              <mxPoint x="680" y="339" />
            </Array>
          </mxGeometry>
        </mxCell>
        <mxCell id="qFDEvMqMk0E2gpubQTda-99" value="&lt;font color=&quot;#009900&quot; style=&quot;font-size: 13px;&quot;&gt;1: Invoke When&lt;br&gt;Task is Completed&lt;/font&gt;" style="edgeLabel;html=1;align=center;verticalAlign=middle;resizable=0;points=[];" vertex="1" connectable="0" parent="qFDEvMqMk0E2gpubQTda-95">
          <mxGeometry x="-0.1136" y="-1" relative="1" as="geometry">
            <mxPoint x="-38" y="1" as="offset" />
          </mxGeometry>
        </mxCell>
      </root>
    </mxGraphModel>
  </diagram>
</mxfile>
